<svg width="148" height="89" viewBox="0 0 148 89" fill="none" xmlns="http://www.w3.org/2000/svg">
<g clip-path="url(#clip0_3168_1639)">
<path d="M93.5605 28.0061C83.1052 28.9866 72.8638 30.1828 62.8122 32.0413C54.8394 33.5155 46.9738 35.1909 39.5288 37.6379C32.6501 39.8987 26.2562 42.6119 21.4651 46.7489C19.8539 48.1402 18.6551 49.6906 17.9929 51.3728C16.6079 54.8908 19.2019 57.37 23.1114 59.3741C27.3921 61.5686 32.4309 62.6921 37.5388 63.6367C40.7608 64.2326 44.059 64.6432 47.4075 65.1497C46.9855 65.7278 46.1542 65.6803 45.4572 65.7419C38.7648 66.3335 32.0297 66.4732 25.3462 65.9183C18.2857 65.3321 11.4515 64.1428 6.13559 60.6294C1.58104 57.6191 0.173718 53.8486 0.398774 49.6899C0.926133 39.9449 8.97389 33.198 19.9814 27.6759C29.6546 22.8231 40.5684 19.5964 51.9015 16.932C63.5215 14.2002 75.4449 12.2769 87.5223 10.739C92.7159 10.0777 97.9437 9.56267 103.186 9.12424C104.443 9.01909 105.184 8.80045 105.039 7.86634C104.921 7.10293 105.586 6.81614 106.591 6.7219C110.19 6.38466 113.789 6.05052 117.382 5.68849C118.345 5.59145 118.882 5.72216 118.829 6.457C118.737 7.71123 118.83 8.96717 118.598 10.2226C118.458 10.9837 118.005 11.3028 116.86 11.3868C114.454 11.5632 112.067 11.8592 109.662 12.0501C108.641 12.1312 108.207 12.4179 108.203 13.1083C108.2 13.6216 107.951 14.1343 107.95 14.6475C107.944 16.568 107.903 16.4466 105.044 16.6771C92.2348 17.7095 79.5345 19.1611 67.0778 21.4142C56.1606 23.3888 45.4761 25.8271 35.6027 29.6367C29.0612 32.1608 23.0373 35.0978 18.2896 39.1013C17.1919 40.0269 16.3925 41.0645 15.4828 42.0757C17.9832 40.2258 20.5571 38.4442 23.4584 36.8811C30.1882 33.2552 37.811 30.716 45.7831 28.6141C54.8329 26.2279 64.2013 24.5479 73.7459 23.3777C82.1896 22.3424 90.665 21.375 99.2621 21.0546C99.92 21.0301 100.573 20.9453 101.228 20.8915C103.726 20.6868 103.752 20.6895 104.056 19.0663C104.156 18.5325 104.535 18.2732 105.288 18.1983C109.047 17.8247 112.805 17.4439 116.565 17.076C117.476 16.9869 118.048 17.1332 117.957 17.8989C117.822 19.0401 117.776 20.1878 117.765 21.3331C117.756 22.1829 117.236 22.6107 115.94 22.7143C113.538 22.9063 111.152 23.19 108.751 23.3935C107.473 23.5018 106.873 23.8208 106.847 24.7895C106.79 26.9598 106.697 26.9476 103.539 27.1929C100.259 27.4477 96.9838 27.727 93.5605 28.0061Z" fill="#3B82F6"/>
<path d="M107.58 31.9116C109.219 33.5357 109.248 34.9078 107.752 36.1494C106.338 37.3235 104.071 37.6828 101.933 37.0897C101.248 36.8997 100.614 36.6344 100.266 36.2171C99.5377 35.3433 98.4145 35.3101 97.1463 35.384C81.9056 36.2718 67.9956 39.7304 55.1698 45.2289C52.3346 46.4443 50.1732 48.1815 48.8746 50.2583C46.8583 53.4828 48.6325 55.5073 52.8866 57.3206C55.4213 58.4011 58.3134 58.9218 61.2826 59.2235C61.9566 59.2919 62.6161 59.4246 63.2639 59.6544C61.886 60.1904 60.3763 60.0291 58.9703 60.0811C51.883 60.3432 44.8716 60.0608 38.2118 58.1945C35.5733 57.4551 33.2082 56.4426 31.9948 54.5844C30.339 52.0485 31.7533 49.8721 33.9803 47.8798C37.529 44.7049 42.3698 42.546 47.4636 40.6841C56.7658 37.2839 66.7208 35.0877 77.0916 33.6551C84.0333 32.6962 91.019 32.2914 98.0852 32.3496C98.8455 32.3559 99.5415 32.3816 100.206 31.9478C102.614 30.3754 104.872 30.3715 107.58 31.9116Z" fill="#3B82F6"/>
<path d="M46.1817 87.4192C46.1798 84.6506 46.1928 81.9887 46.1704 79.3269C46.1587 77.933 45.7881 77.7397 43.3653 77.7401C41.0122 77.7404 40.7496 77.8876 40.7217 79.2826C40.7026 80.2437 40.6923 81.2053 40.722 82.1661C40.7445 82.895 40.3168 83.287 39.1748 83.2596C38.6246 83.2464 38.0726 83.2509 37.5221 83.2616C36.4998 83.2814 35.9747 82.9668 35.9876 82.2695C36.0116 80.976 35.9105 79.6751 36.0825 78.3906C36.3897 76.0958 39.1317 74.5314 42.585 74.5262C44.4103 74.5235 46.2428 74.4675 47.842 75.206C48.4258 75.4756 48.8667 75.2698 49.3555 75.0904C51.7439 74.2139 54.2824 74.347 56.732 74.8096C59.3129 75.2969 60.8989 76.8362 60.9271 78.6516C60.9741 81.6825 60.9138 84.7142 60.9491 87.7453C60.9578 88.4944 60.569 88.8567 59.4233 88.813C58.9292 88.7941 58.4305 88.7996 57.9362 88.82C56.8253 88.8659 56.3397 88.5506 56.3507 87.7816C56.3906 85.0116 56.3658 82.2411 56.3905 79.4709C56.4034 78.0249 55.9694 77.7405 53.5976 77.7375C51.3616 77.7347 50.8016 78.0928 50.8194 79.5037C50.8528 82.1646 50.8393 84.8263 50.9351 87.4862C50.9725 88.5231 50.3148 88.845 48.8627 88.8363C46.3564 88.8213 46.2776 88.8197 46.1817 87.4192Z" fill="#3B82F6"/>
<path d="M78.9934 87.422C77.4507 88.4376 75.6821 88.8765 73.6632 88.8199C71.4255 88.7572 69.1532 89.0549 66.9636 88.4597C64.4998 87.7898 63.3196 86.5284 62.9859 84.8239C62.8596 84.1788 63.1889 83.8268 64.2151 83.8348C64.8756 83.8399 65.5374 83.8358 66.1969 83.8136C66.9642 83.7878 67.4779 83.939 67.5618 84.5178C67.6734 85.2876 68.4197 85.5949 69.4848 85.6015C71.0264 85.6109 72.5684 85.5926 74.1103 85.5924C75.3011 85.5924 75.9987 85.2239 76.0277 84.4043C76.0904 82.6332 76.1684 80.8615 76.151 79.0904C76.142 78.1804 75.4607 77.668 73.9568 77.7277C72.5848 77.7821 71.204 77.7274 69.8274 77.7384C68.0717 77.7524 67.6045 78.0549 67.5576 79.2651C67.5189 80.262 67.5286 81.2607 67.5677 82.2577C67.5952 82.9584 67.1622 83.2918 66.1037 83.2602C65.5542 83.2438 65.0016 83.2465 64.452 83.264C63.3217 83.3 62.8308 82.9204 62.8639 82.1924C62.9242 80.8655 62.9146 79.5345 63.0754 78.2129C63.3243 76.1671 66.0299 74.5511 69.1045 74.5348C70.8116 74.5258 72.5189 74.525 74.2261 74.5308C77.8018 74.5431 80.5647 76.2424 80.7169 78.6563C80.8424 80.648 80.7978 82.6468 80.7317 84.6409C80.6979 85.6631 80.0621 86.574 78.9934 87.422Z" fill="#3B82F6"/>
<path d="M109.647 81.0448C109.653 80.1745 109.623 79.3993 109.675 78.6266C109.836 76.2471 112.439 74.5558 115.969 74.5296C117.73 74.5164 119.493 74.5062 121.254 74.5375C124.578 74.5965 127.264 76.3141 127.368 78.5389C127.465 80.6053 127.435 82.6764 127.362 84.7439C127.298 86.5551 125.517 88.1383 122.685 88.5791C119.734 89.0384 116.671 89.0873 113.725 88.4679C111.412 87.9816 109.742 86.3818 109.67 84.8888C109.637 84.2172 109.919 83.8142 111.035 83.8412C112.485 83.8763 114.213 83.4739 114.538 85.0555C114.623 85.4733 115.35 85.6132 116.009 85.61C117.661 85.6019 119.313 85.6095 120.964 85.5907C122.008 85.5789 122.621 85.2259 122.625 84.4971C122.636 82.6134 122.637 80.7297 122.633 78.8459C122.631 78.0567 122.001 77.7256 120.854 77.7378C119.368 77.7535 117.878 77.7804 116.396 77.7253C114.782 77.6653 114.217 78.2318 114.202 79.1938C114.187 80.1541 114.149 81.116 114.215 82.0744C114.272 82.911 113.849 83.3486 112.522 83.2561C112.249 83.2371 111.967 83.2318 111.697 83.2562C110.156 83.395 109.362 83.0405 109.641 81.9158C109.703 81.6642 109.649 81.3997 109.647 81.0448Z" fill="#3B82F6"/>
<path d="M129.973 76.8818C131.375 75.1994 133.421 74.4607 136.162 74.5279C137.536 74.5616 138.915 74.5266 140.291 74.5267C144.171 74.527 146.991 76.1782 147.133 78.7782C147.298 81.7667 147.167 84.7624 147.181 87.7549C147.185 88.4926 146.7 88.854 145.583 88.8224C145.144 88.8099 144.701 88.8087 144.262 88.8302C142.928 88.8956 142.399 88.5114 142.414 87.5962C142.46 84.9 142.399 82.2031 142.404 79.5065C142.406 78.0093 142.056 77.7472 139.868 77.7386C138.602 77.7337 137.333 77.7705 136.069 77.7271C134.556 77.6752 133.967 78.1673 133.991 79.1229C134.012 79.9355 133.996 80.7485 133.998 81.5613C134.003 83.2478 133.966 83.2723 131.382 83.2547C131.052 83.2524 130.721 83.2555 130.392 83.2371C129.763 83.2019 129.299 82.9724 129.308 82.5474C129.347 80.6774 128.791 78.7754 129.973 76.8818Z" fill="#3B82F6"/>
<path d="M1.26512 77.691C1.34516 73.8781 0.777121 74.5969 5.83911 74.5442C9.69313 74.504 13.55 74.5683 17.4029 74.5085C18.9297 74.4848 19.2696 74.926 19.2463 75.8353C19.2017 77.5755 19.1448 77.7184 17.3814 77.7305C14.1877 77.7523 10.9929 77.7587 7.79965 77.7245C6.58432 77.7114 5.97543 77.9293 5.97624 78.8381C5.97704 79.7319 6.41756 80.1171 7.79795 80.0882C10.3837 80.0339 12.9769 80.1028 15.5587 80.0128C16.7917 79.9697 17.1464 80.3147 17.1613 81.0185C17.1691 81.3878 17.1506 81.7574 17.1523 82.1268C17.156 82.8948 16.6601 83.2602 15.4455 83.2513C11.3709 83.2212 7.29535 83.2162 3.22062 83.2383C1.80158 83.246 1.23476 82.8345 1.2648 81.9019C1.30879 80.5356 1.26932 79.1682 1.26512 77.691Z" fill="#3B82F6"/>
<path d="M107.584 82.7913C107.583 84.4897 107.534 86.0778 107.593 87.6642C107.649 89.1697 106.03 88.7584 104.819 88.8124C103.608 88.8664 103.009 88.6722 102.952 87.6511C102.738 83.7768 102.926 79.9036 102.829 76.0308C102.817 75.5302 102.592 74.8484 103.48 74.6635C104.671 74.4157 105.993 74.3674 107.189 74.6927C107.76 74.8478 107.571 75.3442 107.573 75.7033C107.584 78.0289 107.582 80.3546 107.584 82.7913Z" fill="#3B82F6"/>
<path d="M13.7957 85.6023C15.269 85.6037 16.587 85.6138 17.9047 85.6041C18.7938 85.5976 19.2364 85.8685 19.2173 86.4691C19.215 86.5428 19.2159 86.6167 19.2189 86.6904C19.305 88.8089 19.2489 88.844 16.0653 88.8349C13.3719 88.8272 10.6775 88.8573 7.98535 88.8177C4.38688 88.7647 1.80829 87.1821 1.36179 84.8607C1.21487 84.0968 1.56101 83.728 2.76605 83.793C3.36681 83.8253 3.97711 83.8307 4.57758 83.7999C5.40148 83.7576 5.98419 83.8857 6.10406 84.5127C6.2614 85.3356 7.0743 85.5962 8.19892 85.594C10.0127 85.5904 11.8265 85.5991 13.7957 85.6023Z" fill="#3B82F6"/>
<path d="M82.6544 76.5295C82.6558 76.0956 82.6742 75.7629 82.6527 75.4315C82.6091 74.7597 83.1174 74.5238 84.067 74.5264C89.2922 74.5406 94.5176 74.5441 99.7429 74.5375C100.725 74.5363 101.149 74.854 101.156 75.479C101.16 75.811 101.114 76.1449 101.151 76.475C101.25 77.3554 100.732 77.7524 99.3505 77.7442C94.4005 77.7146 89.4499 77.7246 84.4997 77.7372C83.345 77.7401 82.5232 77.5611 82.6544 76.5295Z" fill="#3B82F6"/>
<path d="M122.16 20.9259C124.85 20.653 127.405 20.4117 129.951 20.1353C130.974 20.0244 131.415 20.2807 131.352 20.954C131.256 21.9825 131.143 23.0102 131.044 24.0386C131.007 24.4279 130.71 24.6437 130.138 24.6997C127.153 24.9918 124.169 25.292 121.182 25.5745C120.081 25.6786 119.698 25.3319 119.837 24.6023C119.968 23.9096 120.092 23.2 120.01 22.5091C119.886 21.4735 120.514 20.9819 122.16 20.9259Z" fill="#3B82F6"/>
<path d="M126.363 11.1726C124.968 11.3031 123.715 11.4067 122.473 11.5564C121.381 11.6881 120.913 11.4033 120.982 10.6767C121.069 9.75783 121.15 8.83865 121.239 7.91986C121.289 7.40653 121.687 7.1267 122.463 7.0486C125.338 6.75925 128.211 6.45981 131.082 6.15066C132.029 6.04861 132.422 6.31468 132.377 6.93089C132.374 6.96762 132.38 7.00459 132.378 7.0414C132.203 11.4147 133.225 10.3726 126.363 11.1726Z" fill="#3B82F6"/>
<path d="M94.2707 84.7877C94.2702 85.8214 94.248 86.7446 94.2757 87.6672C94.2987 88.4336 93.865 88.8007 92.6388 88.8308C89.7113 88.9028 89.5785 88.8414 89.5789 86.8595C89.5793 84.5706 89.5705 82.2818 89.5513 79.9929C89.5386 78.4667 89.7334 78.3041 91.7069 78.2936C94.1903 78.2805 94.2706 78.3293 94.2733 79.9143C94.276 81.5018 94.2719 83.0893 94.2707 84.7877Z" fill="#3B82F6"/>
<path d="M139.767 20.3612C138.183 20.6591 137.653 20.3677 137.778 19.3011C138.101 16.5433 138.038 16.5324 142.107 16.0635C143.567 15.8953 145.043 15.7882 146.505 15.6265C147.5 15.5165 147.982 15.7549 147.926 16.4429C147.92 16.5165 147.925 16.5904 147.921 16.6641C147.734 20.1645 148.562 19.497 143.334 20.0466C142.196 20.1662 141.049 20.2438 139.767 20.3612Z" fill="#3B82F6"/>
<path d="M21.4392 83.0241C20.856 82.247 21.1104 81.5018 21.127 80.7716C21.1403 80.1902 21.7657 80.0654 22.504 80.0645C25.976 80.0601 29.4481 80.0638 32.9196 80.0343C33.7855 80.027 34.1358 80.2681 34.1255 80.8155C34.1241 80.8894 34.1247 80.9635 34.1289 81.0373C34.2542 83.2529 34.2538 83.2756 30.9441 83.2422C27.8134 83.2105 24.6739 83.392 21.4392 83.0241Z" fill="#3B82F6"/>
<path d="M137.637 0.922132C140.375 0.616962 142.986 0.361299 145.588 0.0721143C146.724 -0.0540359 147.066 0.234384 146.992 0.975405C146.637 4.57068 147.584 3.85874 142.429 4.4675C141.022 4.63362 139.602 4.74859 138.188 4.88865C137.678 4.93926 136.982 4.96014 136.974 4.56425C136.949 3.35533 136.275 2.08622 137.637 0.922132Z" fill="#3B82F6"/>
<path d="M36.854 88.7547C35.9951 88.5393 36.0029 88.1206 35.9989 87.7089C35.9896 86.7478 36.0095 85.7862 35.9713 84.8256C35.9421 84.091 36.3151 83.7713 37.5165 83.7893C40.7154 83.8373 40.7166 83.8034 40.7108 85.9418C40.7103 86.1267 40.7101 86.3115 40.7086 86.4963C40.6888 88.8985 40.6888 88.8985 36.854 88.7547Z" fill="#3B82F6"/>
<path d="M133.963 88.0247C133.102 89.3817 131.475 88.7538 130.203 88.7439C129.064 88.7349 129.265 87.9749 129.254 87.441C129.237 86.5942 129.293 85.7465 129.26 84.9002C129.229 84.0906 129.778 83.8156 130.96 83.8096C133.987 83.7942 133.989 83.7666 133.991 85.824C133.991 86.5237 133.982 87.2234 133.963 88.0247Z" fill="#3B82F6"/>
<path d="M100.75 53.5491C101.868 54.5532 101.804 55.3763 100.679 55.8886C99.7101 56.3295 98.3227 56.0833 97.7196 55.3601C97.2315 54.7747 97.3496 54.2122 98.0009 53.7357C98.7561 53.1833 99.6591 53.058 100.75 53.5491Z" fill="#3B82F6"/>
<path d="M80.0701 64.7704C78.9757 63.8388 78.9869 62.8896 80.0116 62.4122C80.8858 62.0049 81.7825 62.04 82.5738 62.4969C83.4379 62.9958 83.5618 63.6499 82.9777 64.2783C82.3253 64.9802 81.3786 65.2578 80.0701 64.7704Z" fill="#3B82F6"/>
<path d="M73.0949 65.019C72.2521 65.5955 71.3893 65.7028 70.5171 65.2539C69.8051 64.8875 69.5358 64.3648 69.8358 63.7792C70.1445 63.1766 70.8706 62.94 71.7722 62.9649C73.1586 63.0032 73.7089 63.8014 73.0949 65.019Z" fill="#3B82F6"/>
<path d="M89.0119 56.9978C88.0052 56.4171 88.0043 55.8047 88.6019 55.1694C89.0272 54.7173 89.6871 54.5364 90.4535 54.6845C91.6404 54.9139 92.2526 55.4986 91.8676 56.2764C91.4447 57.1306 90.4544 57.4603 89.0119 56.9978Z" fill="#3B82F6"/>
<path d="M79.475 58.0297C78.7008 56.9436 78.9197 56.306 80.0533 56.0786C80.8071 55.9274 81.5403 56.0543 81.9435 56.4791C82.3579 56.9156 82.4734 57.4776 81.8842 57.9073C81.2333 58.382 80.4289 58.5389 79.475 58.0297Z" fill="#3B82F6"/>
<path d="M62.1085 63.7244C62.7802 63.853 63.321 64.0138 63.4771 64.4014C63.6996 64.9537 63.7502 65.5388 62.8562 65.8688C62.1119 66.1436 61.3439 66.1094 60.7876 65.6193C60.2164 65.1161 60.2694 64.5827 60.8228 64.0852C61.0983 63.8375 61.5177 63.7324 62.1085 63.7244Z" fill="#3B82F6"/>
<path d="M51.6553 64.6686C52.6555 64.3268 53.3682 64.474 53.7663 65.0843C54.1096 65.6107 53.925 66.1008 53.1817 66.4234C52.5262 66.7078 51.9095 66.5386 51.4102 66.2143C50.6062 65.6921 50.7809 65.1833 51.6553 64.6686Z" fill="#3B82F6"/>
<path d="M72.3341 57.9072C72.5387 59.1159 71.8857 59.6772 70.7458 59.3903C70.1377 59.2372 69.7566 58.9325 69.7097 58.4931C69.6683 58.1043 69.9034 57.7696 70.4097 57.5664C71.135 57.2752 71.7571 57.4094 72.3341 57.9072Z" fill="#3B82F6"/>
</g>
<defs>
<clipPath id="clip0_3168_1639">
<rect width="148" height="89" fill="white"/>
</clipPath>
</defs>
</svg>
